<svg width="30" height="26" viewBox="0 0 30 26" fill="none" xmlns="http://www.w3.org/2000/svg">
<path d="M20.9644 4.04296C20.0116 7.17353 18.9339 12.0814 22.2453 6.6685C22.503 6.26837 23.0184 5.22266 23.0184 4.24078C23.0184 3.2589 23.0184 7.12557 23.0184 9.18164C22.9524 7.734 23.0885 4.71913 24.1599 4.24078L26.2138 2.92801L26.443 3.24271C26.0715 5.37521 25.8992 9.61144 28.1824 9.49635C30.4655 9.38125 26.452 10.1527 24.1599 10.5529C20.2693 11.3411 12.2427 13.2036 11.2612 14.3473" stroke="currentColor" stroke-width="0.8"/>
<path d="M14.3882 6.2731C14.0206 5.44214 12.9914 4.2788 11.8152 6.2731C10.345 8.76596 10.1163 12.6084 12.6893 10.1379C14.7476 8.16158 15.1517 5.95178 15.0964 5.09392H14.7019C14.161 6.71996 13.341 10.0052 14.3882 10.1379C14.6945 10.1768 15.1031 9.74027 15.5525 9.03498M15.5525 9.03498C16.6391 7.32997 17.9647 4.05414 18.6644 2.12579C18.1176 2.90145 17.3062 4.6348 18.4358 5.36293C19.8478 6.2731 17.4207 12.1869 15.5525 9.03498Z" stroke="currentColor" stroke-width="0.8"/>
<path d="M2.44261 6.61631C3.30743 5.50116 5.3019 3.04186 6.36123 2.12579C5.29741 4.91889 3.53695 10.541 5.00565 10.6847C6.47435 10.8284 10.235 5.03864 11.9317 2.12579C11.5397 2.98947 10.6596 5.13264 10.2754 6.79593C9.89113 8.45922 7.82604 14.5211 6.84152 17.3442C6.00812 19.6418 3.88976 24.1895 2.08352 23.9991C0.277274 23.8087 1.13042 20.3872 1.78278 18.7003C2.84659 16.461 6.67095 11.0125 11.1955 10.6847" stroke="currentColor" stroke-width="0.8"/>
<path d="M21.139 3.32124L21.5794 2" stroke="currentColor" stroke-width="0.8"/>
</svg>
